<?xml version="1.0" standalone="no"?>
<!DOCTYPE svg PUBLIC "-//W3C//DTD SVG 20010904//EN"
 "http://www.w3.org/TR/2001/REC-SVG-20010904/DTD/svg10.dtd">
<svg version="1.0" xmlns="http://www.w3.org/2000/svg"
 width="278.000000pt" height="274.000000pt" viewBox="0 0 278.000000 274.000000"
 preserveAspectRatio="xMidYMid meet">

<g transform="translate(0.000000,274.000000) scale(0.100000,-0.100000)"
fill="#000000" stroke="none">
<path d="M340 2279 c-229 -274 -336 -628 -302 -1004 20 -220 69 -378 173 -561
229 -399 615 -640 1078 -673 387 -28 733 80 1027 320 98 80 227 231 288 338
13 24 -26 -19 -53 -57 -29 -42 -45 -32 -38 26 3 24 2 39 -3 33 -8 -14 -77 -1
-72 14 2 4 -28 24 -67 42 -39 19 -71 39 -71 44 0 5 -7 9 -15 9 -8 0 -15 4 -15
9 0 5 -14 24 -32 41 -28 28 -33 30 -43 16 -17 -23 -26 -8 -12 21 9 21 8 27 -6
38 -9 7 -17 18 -17 25 0 6 -20 -15 -45 -48 -285 -379 -788 -476 -1168 -226
-274 181 -427 502 -396 834 13 142 63 277 145 393 37 51 46 84 14 49 -11 -12
-20 -27 -20 -34 0 -9 -3 -9 -10 2 -13 20 -13 70 1 70 5 0 7 5 4 10 -4 6 -10 8
-15 5 -12 -8 -60 35 -60 53 0 10 -7 13 -20 9 -16 -4 -36 9 -80 53 -33 32 -68
61 -80 65 -13 4 -20 15 -20 31 0 15 -6 24 -15 24 -8 0 -15 5 -15 11 0 5 4 8 9
5 5 -3 12 1 15 10 5 12 1 14 -15 9 -18 -6 -20 -4 -14 14 9 30 4 27 -35 -20z
m11 -48 c-6 -11 -8 -28 -5 -38 4 -14 4 -15 -4 -3 -20 32 -24 60 -8 60 9 0 16
6 17 13 0 9 2 9 5 0 3 -7 1 -21 -5 -32z m279 -247 c0 -8 -9 -14 -20 -14 -19 0
-27 19 -14 33 10 9 34 -4 34 -19z m1541 -1069 c14 9 11 -11 -5 -24 -11 -9 -15
-7 -19 11 -3 12 -3 26 1 32 4 7 8 4 10 -7 2 -9 8 -15 13 -12z m-31 -25 c0 -5
-2 -10 -4 -10 -3 0 -8 5 -11 10 -3 6 -1 10 4 10 6 0 11 -4 11 -10z"/>
<path d="M751 1997 c-13 -21 -12 -21 5 -5 10 10 16 20 13 22 -3 3 -11 -5 -18
-17z"/>
<path d="M1178 1733 c7 -3 16 -2 19 1 4 3 -2 6 -13 5 -11 0 -14 -3 -6 -6z"/>
<path d="M1238 1733 c7 -3 16 -2 19 1 4 3 -2 6 -13 5 -11 0 -14 -3 -6 -6z"/>
<path d="M1278 1733 c6 -2 18 -2 25 0 6 3 1 5 -13 5 -14 0 -19 -2 -12 -5z"/>
<path d="M1118 1710 c-14 -11 -28 -29 -31 -41 -4 -16 -3 -19 5 -11 6 6 16 8
23 6 7 -3 15 2 19 12 4 11 2 15 -8 11 -10 -4 -13 -1 -9 9 3 8 11 13 18 11 6
-3 12 1 12 9 0 18 1 18 -29 -6z"/>
<path d="M1099 1638 c-10 -32 -6 -57 11 -73 11 -10 20 -13 20 -7 0 6 -5 12
-12 14 -6 2 -11 18 -10 36 0 18 -1 32 -4 32 -2 0 -4 -1 -5 -2z"/>
<path d="M1165 1591 c-7 -12 12 -24 25 -16 11 7 4 25 -10 25 -5 0 -11 -4 -15
-9z"/>
<path d="M1145 1550 c3 -5 23 -10 43 -9 33 1 34 2 12 9 -36 12 -62 12 -55 0z"/>
<path d="M794 1321 c-44 -27 -61 -79 -40 -123 31 -65 14 -63 516 -60 l455 3
28 30 c37 40 37 88 -2 131 l-29 33 -449 3 c-428 2 -449 1 -479 -17z"/>
<path d="M2545 690 c-3 -5 -1 -10 4 -10 6 0 11 5 11 10 0 6 -2 10 -4 10 -3 0
-8 -4 -11 -10z"/>
<path d="M2520 660 c0 -5 5 -10 10 -10 6 0 10 5 10 10 0 6 -4 10 -10 10 -5 0
-10 -4 -10 -10z"/>
</g>
</svg>
